<svg width="40" height="40" viewBox="0 0 40 40" fill="none" xmlns="http://www.w3.org/2000/svg">
<path d="M20.8996 20L16.9996 16.1C16.8163 15.9167 16.7246 15.6833 16.7246 15.4C16.7246 15.1167 16.8163 14.8833 16.9996 14.7C17.1829 14.5167 17.4163 14.425 17.6996 14.425C17.9829 14.425 18.2163 14.5167 18.3996 14.7L22.9996 19.3C23.0996 19.4 23.1704 19.5083 23.2121 19.625C23.2538 19.7417 23.2746 19.8667 23.2746 20C23.2746 20.1333 23.2538 20.2583 23.2121 20.375C23.1704 20.4917 23.0996 20.6 22.9996 20.7L18.3996 25.3C18.2163 25.4833 17.9829 25.575 17.6996 25.575C17.4163 25.575 17.1829 25.4833 16.9996 25.3C16.8163 25.1167 16.7246 24.8833 16.7246 24.6C16.7246 24.3167 16.8163 24.0833 16.9996 23.9L20.8996 20Z" fill="#E8EAED"/>
</svg>
