<svg width="18" height="17" viewBox="0 0 18 17" fill="none" xmlns="http://www.w3.org/2000/svg">
<path d="M9.00002 13.775L4.85002 16.275C4.66668 16.3917 4.47502 16.4417 4.27501 16.425C4.07501 16.4083 3.90001 16.3417 3.75002 16.225C3.60001 16.1083 3.48335 15.9625 3.40002 15.7875C3.31668 15.6125 3.30002 15.4167 3.35002 15.2L4.45002 10.475L0.775015 7.3C0.608348 7.15 0.504182 6.97916 0.462515 6.7875C0.420848 6.59583 0.433348 6.40833 0.500015 6.225C0.566682 6.04166 0.666682 5.89166 0.800015 5.775C0.933348 5.65833 1.11668 5.58333 1.35002 5.55L6.20002 5.125L8.07502 0.674997C8.15835 0.474997 8.28752 0.324997 8.46252 0.224997C8.63752 0.124997 8.81668 0.0749969 9.00002 0.0749969C9.18335 0.0749969 9.36252 0.124997 9.53752 0.224997C9.71252 0.324997 9.84168 0.474997 9.92502 0.674997L11.8 5.125L16.65 5.55C16.8833 5.58333 17.0667 5.65833 17.2 5.775C17.3333 5.89166 17.4333 6.04166 17.5 6.225C17.5667 6.40833 17.5792 6.59583 17.5375 6.7875C17.4958 6.97916 17.3917 7.15 17.225 7.3L13.55 10.475L14.65 15.2C14.7 15.4167 14.6833 15.6125 14.6 15.7875C14.5167 15.9625 14.4 16.1083 14.25 16.225C14.1 16.3417 13.925 16.4083 13.725 16.425C13.525 16.4417 13.3333 16.3917 13.15 16.275L9.00002 13.775Z" fill="#FAFAFA"/>
</svg>
