<svg width="18" height="17" viewBox="0 0 18 17" fill="none" xmlns="http://www.w3.org/2000/svg">
<path d="M9.00002 14.275L4.85002 16.775C4.66668 16.8917 4.47502 16.9417 4.27501 16.925C4.07501 16.9083 3.90001 16.8417 3.75002 16.725C3.60001 16.6083 3.48335 16.4625 3.40002 16.2875C3.31668 16.1125 3.30002 15.9167 3.35002 15.7L4.45002 10.975L0.775015 7.8C0.608348 7.65 0.504182 7.47916 0.462515 7.2875C0.420848 7.09583 0.433348 6.90833 0.500015 6.725C0.566682 6.54166 0.666682 6.39166 0.800015 6.275C0.933348 6.15833 1.11668 6.08333 1.35002 6.05L6.20002 5.625L8.07502 1.175C8.15835 0.974997 8.28752 0.824997 8.46252 0.724997C8.63752 0.624997 8.81668 0.574997 9.00002 0.574997C9.18335 0.574997 9.36252 0.624997 9.53752 0.724997C9.71252 0.824997 9.84168 0.974997 9.92502 1.175L11.8 5.625L16.65 6.05C16.8833 6.08333 17.0667 6.15833 17.2 6.275C17.3333 6.39166 17.4333 6.54166 17.5 6.725C17.5667 6.90833 17.5792 7.09583 17.5375 7.2875C17.4958 7.47916 17.3917 7.65 17.225 7.8L13.55 10.975L14.65 15.7C14.7 15.9167 14.6833 16.1125 14.6 16.2875C14.5167 16.4625 14.4 16.6083 14.25 16.725C14.1 16.8417 13.925 16.9083 13.725 16.925C13.525 16.9417 13.3333 16.8917 13.15 16.775L9.00002 14.275Z" fill="#FE8E4D"/>
</svg>
